<svg xmlns="http://www.w3.org/2000/svg" viewBox="0 0 32 32" aria-hidden="true" role="presentation" focusable="false" style="display: block; height: 20px; width: 20px; fill: currentcolor;">
    <path d="M30.5105,5.87921A5.06207,5.06207,0,0,0,26,3H6A5.06215,5.06215,0,0,0,1.48932,5.87946,4.9444,4.9444,0,0,0,1,8V24a5.00588,5.00588,0,0,0,5,5H26a5.00588,5.00588,0,0,0,5-5V8A4.94373,4.94373,0,0,0,30.5105,5.87921ZM6,5H26a2.97234,2.97234,0,0,1,1.77252.59253l-9.8194,8.41675a2.98373,2.98373,0,0,1-3.90527,0l-9.82013-8.417A2.97238,2.97238,0,0,1,6,5ZM29,24a3.00328,3.00328,0,0,1-3,3H6a3.00328,3.00328,0,0,1-3-3V8a2.96566,2.96566,0,0,1,.10266-.73773l9.64343,8.26556a4.97272,4.97272,0,0,0,6.50782,0L28.89728,7.262A2.96542,2.96542,0,0,1,29,8Z"></path>
</svg>